<svg width="203" height="21" viewBox="0 0 203 21" fill="none" xmlns="http://www.w3.org/2000/svg">
<g clip-path="url(#clip0_124_185)">
<path d="M11.2683 15.6938C11.2683 15.3381 11.3093 14.9928 11.3605 14.6476H2.04878V4.18502L10.2439 9.4163L18.439 4.18502V9.51046C19.1766 9.63601 19.8629 9.89758 20.4878 10.2638V2.09251C20.4878 0.94163 19.5659 0 18.439 0H2.04878C0.921951 0 0 0.94163 0 2.09251V14.6476C0 15.7985 0.921951 16.7401 2.04878 16.7401H11.3605C11.3093 16.3948 11.2683 16.0496 11.2683 15.6938ZM18.439 2.09251L10.2439 7.32379L2.04878 2.09251H18.439ZM16.1341 19L13.3171 15.8612L14.5054 14.6476L16.1341 16.3111L19.8117 12.5551L21 14.0303L16.1341 19Z" fill="#464E59"/>
</g>
<path d="M28.5341 16.5V5.59091H30.2102V16.5H28.5341ZM29.3864 3.77273C29.0597 3.77273 28.7779 3.66146 28.5412 3.43892C28.3092 3.21638 28.1932 2.94886 28.1932 2.63636C28.1932 2.32386 28.3092 2.05634 28.5412 1.83381C28.7779 1.61127 29.0597 1.5 29.3864 1.5C29.7131 1.5 29.9924 1.61127 30.2244 1.83381C30.4612 2.05634 30.5795 2.32386 30.5795 2.63636C30.5795 2.94886 30.4612 3.21638 30.2244 3.43892C29.9924 3.66146 29.7131 3.77273 29.3864 3.77273ZM34.9563 9.9375V16.5H33.2802V5.59091H34.8995V7.29545H35.0415C35.2972 6.74148 35.6855 6.2964 36.2063 5.96023C36.7272 5.61932 37.3995 5.44886 38.2234 5.44886C38.962 5.44886 39.6083 5.60038 40.1623 5.90341C40.7163 6.2017 41.1471 6.65625 41.4549 7.26705C41.7627 7.87311 41.9165 8.64015 41.9165 9.56818V16.5H40.2404V9.68182C40.2404 8.82481 40.0179 8.1572 39.5728 7.67898C39.1277 7.19602 38.5169 6.95455 37.7404 6.95455C37.2054 6.95455 36.7272 7.07055 36.3058 7.30256C35.8891 7.53456 35.56 7.87311 35.3185 8.31818C35.0771 8.76326 34.9563 9.30303 34.9563 9.9375ZM49.8374 5.59091V7.01136H43.9567V5.59091H49.8374ZM45.718 16.5V4.08523C45.718 3.46023 45.8648 2.93939 46.1584 2.52273C46.4519 2.10606 46.8331 1.79356 47.3018 1.58523C47.7706 1.37689 48.2654 1.27273 48.7862 1.27273C49.1982 1.27273 49.5343 1.30587 49.7947 1.37216C50.0552 1.43845 50.2493 1.5 50.3771 1.55682L49.8942 3.00568C49.8089 2.97727 49.6906 2.94176 49.5391 2.89915C49.3923 2.85653 49.1982 2.83523 48.9567 2.83523C48.4027 2.83523 48.0026 2.9749 47.7564 3.25426C47.5149 3.53362 47.3942 3.94318 47.3942 4.48295V16.5H45.718ZM56.169 16.7273C55.1842 16.7273 54.3201 16.4929 53.5767 16.0241C52.8381 15.5554 52.2604 14.8996 51.8438 14.0568C51.4318 13.214 51.2259 12.2292 51.2259 11.1023C51.2259 9.96591 51.4318 8.97396 51.8438 8.12642C52.2604 7.27888 52.8381 6.62074 53.5767 6.15199C54.3201 5.68324 55.1842 5.44886 56.169 5.44886C57.1539 5.44886 58.0156 5.68324 58.7543 6.15199C59.4976 6.62074 60.0753 7.27888 60.4872 8.12642C60.9039 8.97396 61.1122 9.96591 61.1122 11.1023C61.1122 12.2292 60.9039 13.214 60.4872 14.0568C60.0753 14.8996 59.4976 15.5554 58.7543 16.0241C58.0156 16.4929 57.1539 16.7273 56.169 16.7273ZM56.169 15.2216C56.9171 15.2216 57.5327 15.0298 58.0156 14.6463C58.4986 14.2628 58.8561 13.7585 59.0881 13.1335C59.3201 12.5085 59.4361 11.8314 59.4361 11.1023C59.4361 10.3731 59.3201 9.69366 59.0881 9.06392C58.8561 8.43419 58.4986 7.92519 58.0156 7.53693C57.5327 7.14867 56.9171 6.95455 56.169 6.95455C55.4209 6.95455 54.8054 7.14867 54.3224 7.53693C53.8395 7.92519 53.482 8.43419 53.25 9.06392C53.018 9.69366 52.902 10.3731 52.902 11.1023C52.902 11.8314 53.018 12.5085 53.25 13.1335C53.482 13.7585 53.8395 14.2628 54.3224 14.6463C54.8054 15.0298 55.4209 15.2216 56.169 15.2216ZM72.0515 20.3352C70.6026 20.3352 69.3219 20.1364 68.2092 19.7386C67.0965 19.3456 66.1613 18.7656 65.4038 17.9986C64.6462 17.2315 64.0733 16.2917 63.685 15.179C63.2968 14.0663 63.1026 12.7926 63.1026 11.358C63.1026 9.97064 63.2991 8.73011 63.6921 7.63636C64.0898 6.54261 64.6651 5.61458 65.418 4.85227C66.1755 4.08523 67.0941 3.50047 68.1737 3.09801C69.2579 2.69555 70.4843 2.49432 71.8526 2.49432C73.1831 2.49432 74.3479 2.71212 75.3469 3.14773C76.3507 3.5786 77.1888 4.16335 77.8612 4.90199C78.5382 5.63589 79.0449 6.46212 79.381 7.38068C79.7219 8.29924 79.8924 9.24621 79.8924 10.2216C79.8924 10.9081 79.8593 11.6042 79.793 12.3097C79.7267 13.0152 79.587 13.6638 79.3739 14.2557C79.1609 14.8428 78.8318 15.3163 78.3867 15.6761C77.9464 16.036 77.3498 16.2159 76.5969 16.2159C76.2655 16.2159 75.9009 16.1638 75.5032 16.0597C75.1055 15.9555 74.7527 15.7827 74.445 15.5412C74.1372 15.2997 73.9549 14.9754 73.8981 14.5682H73.8129C73.6992 14.8428 73.524 15.1032 73.2873 15.3494C73.0553 15.5956 72.7499 15.7921 72.3711 15.9389C71.997 16.0857 71.5401 16.1496 71.0004 16.1307C70.3848 16.107 69.8427 15.9697 69.3739 15.7188C68.9052 15.4631 68.5122 15.1174 68.195 14.6818C67.8825 14.2415 67.6457 13.7325 67.4847 13.1548C67.3285 12.5724 67.2504 11.9451 67.2504 11.2727C67.2504 10.6335 67.3451 10.0488 67.5344 9.51847C67.7238 8.98816 67.9866 8.52415 68.3228 8.12642C68.6637 7.72869 69.0614 7.41146 69.516 7.17472C69.9753 6.93324 70.4701 6.78409 71.0004 6.72727C71.4738 6.67992 71.9047 6.70123 72.293 6.79119C72.6812 6.87642 73.0008 7.00663 73.2518 7.18182C73.5027 7.35227 73.6613 7.54167 73.7276 7.75H73.8129V6.95455H75.3185V13.375C75.3185 13.7727 75.4298 14.1231 75.6523 14.4261C75.8749 14.7292 76.1992 14.8807 76.6254 14.8807C77.1083 14.8807 77.4776 14.715 77.7333 14.3835C77.9937 14.0521 78.1713 13.5407 78.266 12.8494C78.3654 12.1581 78.4151 11.2727 78.4151 10.1932C78.4151 9.55871 78.3275 8.93371 78.1523 8.31818C77.9819 7.69792 77.7215 7.1179 77.3711 6.57812C77.0255 6.03835 76.5875 5.5625 76.0572 5.15057C75.5269 4.73864 74.9042 4.41667 74.1893 4.18466C73.479 3.94792 72.6718 3.82955 71.7674 3.82955C70.6547 3.82955 69.658 4.00237 68.7773 4.34801C67.9014 4.68892 67.1557 5.18845 66.5401 5.84659C65.9293 6.5 65.4629 7.29545 65.141 8.23295C64.8237 9.16572 64.6651 10.2263 64.6651 11.4148C64.6651 12.6222 64.8237 13.6946 65.141 14.6321C65.4629 15.5696 65.9364 16.3603 66.5614 17.0043C67.1912 17.6482 67.9701 18.1359 68.8981 18.4673C69.8261 18.8035 70.8962 18.9716 72.1083 18.9716C72.6291 18.9716 73.1429 18.9219 73.6495 18.8224C74.1561 18.723 74.6036 18.6141 74.9918 18.4957C75.3801 18.3774 75.6594 18.2898 75.8299 18.233L76.2276 19.5398C75.9341 19.6629 75.5505 19.786 75.0771 19.9091C74.6083 20.0322 74.1064 20.134 73.5714 20.2145C73.0411 20.295 72.5344 20.3352 72.0515 20.3352ZM71.2276 14.6818C71.8621 14.6818 72.3758 14.554 72.7688 14.2983C73.1618 14.0426 73.4483 13.6567 73.6282 13.1406C73.8081 12.6245 73.8981 11.9735 73.8981 11.1875C73.8981 10.392 73.7987 9.77178 73.5998 9.3267C73.4009 8.88163 73.1074 8.56913 72.7191 8.3892C72.3308 8.20928 71.8526 8.11932 71.2844 8.11932C70.7447 8.11932 70.283 8.26136 69.8995 8.54545C69.5207 8.82481 69.2295 9.19886 69.0259 9.66761C68.8271 10.1316 68.7276 10.6383 68.7276 11.1875C68.7276 11.7936 68.8081 12.3641 68.9691 12.8991C69.1301 13.4295 69.3929 13.8603 69.7575 14.1918C70.122 14.5185 70.6121 14.6818 71.2276 14.6818ZM90.1286 8.03409L88.6229 8.46023C88.5282 8.20928 88.3885 7.96544 88.2038 7.72869C88.0239 7.48722 87.7777 7.28835 87.4652 7.1321C87.1527 6.97585 86.7526 6.89773 86.2649 6.89773C85.5973 6.89773 85.041 7.05161 84.5959 7.35938C84.1555 7.66241 83.9354 8.0483 83.9354 8.51705C83.9354 8.93371 84.0869 9.26278 84.3899 9.50426C84.6929 9.74574 85.1664 9.94697 85.8104 10.108L87.4297 10.5057C88.4051 10.7424 89.1319 11.1046 89.6101 11.5923C90.0883 12.0753 90.3274 12.6979 90.3274 13.4602C90.3274 14.0852 90.1475 14.6439 89.7876 15.1364C89.4325 15.6288 88.9354 16.017 88.2962 16.3011C87.657 16.5852 86.9136 16.7273 86.0661 16.7273C84.9534 16.7273 84.0324 16.4858 83.3033 16.0028C82.5741 15.5199 82.1125 14.8144 81.9183 13.8864L83.5092 13.4886C83.6607 14.0758 83.9472 14.5161 84.3686 14.8097C84.7947 15.1032 85.3511 15.25 86.0376 15.25C86.8189 15.25 87.4392 15.0843 87.8984 14.7528C88.3625 14.4167 88.5945 14.0142 88.5945 13.5455C88.5945 13.1667 88.4619 12.8494 88.1967 12.5938C87.9316 12.3333 87.5244 12.1392 86.9751 12.0114L85.157 11.5852C84.1579 11.3485 83.424 10.9815 82.9553 10.4844C82.4912 9.98248 82.2592 9.35511 82.2592 8.60227C82.2592 7.98674 82.4321 7.44223 82.7777 6.96875C83.1281 6.49527 83.6039 6.12358 84.2053 5.85369C84.8113 5.58381 85.4979 5.44886 86.2649 5.44886C87.3445 5.44886 88.192 5.68561 88.8075 6.15909C89.4278 6.63258 89.8681 7.25758 90.1286 8.03409ZM97.2823 16.7273C96.2975 16.7273 95.4334 16.4929 94.69 16.0241C93.9513 15.5554 93.3737 14.8996 92.957 14.0568C92.5451 13.214 92.3391 12.2292 92.3391 11.1023C92.3391 9.96591 92.5451 8.97396 92.957 8.12642C93.3737 7.27888 93.9513 6.62074 94.69 6.15199C95.4334 5.68324 96.2975 5.44886 97.2823 5.44886C98.2672 5.44886 99.1289 5.68324 99.8675 6.15199C100.611 6.62074 101.189 7.27888 101.6 8.12642C102.017 8.97396 102.225 9.96591 102.225 11.1023C102.225 12.2292 102.017 13.214 101.6 14.0568C101.189 14.8996 100.611 15.5554 99.8675 16.0241C99.1289 16.4929 98.2672 16.7273 97.2823 16.7273ZM97.2823 15.2216C98.0304 15.2216 98.646 15.0298 99.1289 14.6463C99.6119 14.2628 99.9693 13.7585 100.201 13.1335C100.433 12.5085 100.549 11.8314 100.549 11.1023C100.549 10.3731 100.433 9.69366 100.201 9.06392C99.9693 8.43419 99.6119 7.92519 99.1289 7.53693C98.646 7.14867 98.0304 6.95455 97.2823 6.95455C96.5342 6.95455 95.9187 7.14867 95.4357 7.53693C94.9528 7.92519 94.5953 8.43419 94.3633 9.06392C94.1313 9.69366 94.0153 10.3731 94.0153 11.1023C94.0153 11.8314 94.1313 12.5085 94.3633 13.1335C94.5953 13.7585 94.9528 14.2628 95.4357 14.6463C95.9187 15.0298 96.5342 15.2216 97.2823 15.2216ZM113.314 5.59091L109.28 16.5H107.575L103.541 5.59091H105.359L108.371 14.2841H108.484L111.496 5.59091H113.314ZM120.271 5.59091V7.01136H114.617V5.59091H120.271ZM116.265 2.97727H117.941V13.375C117.941 13.8485 118.01 14.2036 118.147 14.4403C118.289 14.6723 118.469 14.8286 118.687 14.9091C118.909 14.9848 119.144 15.0227 119.39 15.0227C119.575 15.0227 119.726 15.0133 119.844 14.9943C119.963 14.9706 120.058 14.9517 120.129 14.9375L120.469 16.4432C120.356 16.4858 120.197 16.5284 119.994 16.571C119.79 16.6184 119.532 16.642 119.219 16.642C118.746 16.642 118.282 16.5402 117.827 16.3366C117.378 16.133 117.004 15.8229 116.705 15.4062C116.412 14.9896 116.265 14.464 116.265 13.8295V2.97727ZM122.792 16.5V5.59091H124.411V7.23864H124.525C124.724 6.69886 125.084 6.26089 125.604 5.92472C126.125 5.58854 126.712 5.42045 127.366 5.42045C127.489 5.42045 127.643 5.42282 127.827 5.42756C128.012 5.43229 128.152 5.43939 128.246 5.44886V7.15341C128.19 7.1392 128.059 7.1179 127.856 7.08949C127.657 7.05634 127.446 7.03977 127.224 7.03977C126.693 7.03977 126.22 7.15104 125.803 7.37358C125.391 7.59138 125.065 7.89441 124.823 8.28267C124.586 8.66619 124.468 9.10417 124.468 9.59659V16.5H122.792ZM137.108 12.0398V5.59091H138.784V16.5H137.108V14.6534H136.995C136.739 15.2074 136.341 15.6785 135.801 16.0668C135.262 16.4503 134.58 16.642 133.756 16.642C133.074 16.642 132.468 16.4929 131.938 16.1946C131.408 15.8916 130.991 15.437 130.688 14.831C130.385 14.2202 130.233 13.4508 130.233 12.5227V5.59091H131.909V12.4091C131.909 13.2045 132.132 13.839 132.577 14.3125C133.027 14.786 133.6 15.0227 134.296 15.0227C134.712 15.0227 135.136 14.9162 135.567 14.7031C136.003 14.4901 136.367 14.1634 136.661 13.723C136.959 13.2827 137.108 12.7216 137.108 12.0398ZM145.974 16.7273C145.065 16.7273 144.262 16.4976 143.566 16.0384C142.87 15.5743 142.326 14.9209 141.933 14.0781C141.54 13.2306 141.343 12.2292 141.343 11.0739C141.343 9.92803 141.54 8.93371 141.933 8.09091C142.326 7.24811 142.872 6.59706 143.573 6.13778C144.274 5.6785 145.084 5.44886 146.002 5.44886C146.712 5.44886 147.273 5.56723 147.685 5.80398C148.102 6.03598 148.419 6.30114 148.637 6.59943C148.86 6.89299 149.032 7.13447 149.156 7.32386H149.298V1.95455H150.974V16.5H149.354V14.8239H149.156C149.032 15.0227 148.857 15.2737 148.63 15.5767C148.403 15.875 148.078 16.1425 147.657 16.3793C147.236 16.6113 146.674 16.7273 145.974 16.7273ZM146.201 15.2216C146.873 15.2216 147.442 15.0464 147.906 14.696C148.37 14.3409 148.722 13.8509 148.964 13.2259C149.205 12.5961 149.326 11.8693 149.326 11.0455C149.326 10.2311 149.208 9.51847 148.971 8.90767C148.734 8.29214 148.384 7.81392 147.92 7.47301C147.456 7.12737 146.883 6.95455 146.201 6.95455C145.491 6.95455 144.899 7.13684 144.425 7.50142C143.957 7.86127 143.604 8.35133 143.367 8.97159C143.135 9.58712 143.019 10.2784 143.019 11.0455C143.019 11.822 143.138 12.5275 143.374 13.1619C143.616 13.7917 143.971 14.2936 144.44 14.6676C144.913 15.0369 145.5 15.2216 146.201 15.2216ZM155.498 16.6136C155.147 16.6136 154.847 16.4882 154.596 16.2372C154.345 15.9863 154.219 15.6856 154.219 15.3352C154.219 14.9848 154.345 14.6842 154.596 14.4332C154.847 14.1823 155.147 14.0568 155.498 14.0568C155.848 14.0568 156.149 14.1823 156.4 14.4332C156.651 14.6842 156.776 14.9848 156.776 15.3352C156.776 15.5672 156.717 15.7803 156.599 15.9744C156.485 16.1686 156.331 16.3248 156.137 16.4432C155.948 16.5568 155.735 16.6136 155.498 16.6136ZM159.784 16.5V5.59091H161.403V7.23864H161.517C161.716 6.69886 162.076 6.26089 162.597 5.92472C163.117 5.58854 163.705 5.42045 164.358 5.42045C164.481 5.42045 164.635 5.42282 164.82 5.42756C165.004 5.43229 165.144 5.43939 165.239 5.44886V7.15341C165.182 7.1392 165.052 7.1179 164.848 7.08949C164.649 7.05634 164.438 7.03977 164.216 7.03977C163.686 7.03977 163.212 7.15104 162.795 7.37358C162.384 7.59138 162.057 7.89441 161.815 8.28267C161.579 8.66619 161.46 9.10417 161.46 9.59659V16.5H159.784ZM174.1 12.0398V5.59091H175.777V16.5H174.1V14.6534H173.987C173.731 15.2074 173.333 15.6785 172.794 16.0668C172.254 16.4503 171.572 16.642 170.748 16.642C170.066 16.642 169.46 16.4929 168.93 16.1946C168.4 15.8916 167.983 15.437 167.68 14.831C167.377 14.2202 167.225 13.4508 167.225 12.5227V5.59091H168.902V12.4091C168.902 13.2045 169.124 13.839 169.569 14.3125C170.019 14.786 170.592 15.0227 171.288 15.0227C171.705 15.0227 172.128 14.9162 172.559 14.7031C172.995 14.4901 173.359 14.1634 173.653 13.723C173.951 13.2827 174.1 12.7216 174.1 12.0398Z" fill="#464E59"/>
<defs>
<clipPath id="clip0_124_185">
<rect width="21" height="19" fill="white"/>
</clipPath>
</defs>
</svg>
