<svg width="187" height="20" viewBox="0 0 187 20" fill="none" xmlns="http://www.w3.org/2000/svg">
<path d="M19.5825 0.111779L0.98057 7.03576C-0.288937 7.52794 -0.281593 8.21153 0.747653 8.51636L5.52352 9.95443L16.5735 3.22489C17.096 2.91803 17.5734 3.08311 17.181 3.41933L8.22831 11.2183H8.22621L8.22831 11.2193L7.89886 15.971C8.38149 15.971 8.59447 15.7573 8.86516 15.5052L11.1849 13.3278L16.0101 16.768C16.8998 17.241 17.5387 16.9979 17.7601 15.973L20.9276 1.56402C21.2518 0.30926 20.4313 -0.258877 19.5825 0.111779Z" fill="#464E59"/>
<path d="M36.9148 19.3352C35.4659 19.3352 34.1851 19.1364 33.0724 18.7386C31.9598 18.3456 31.0246 17.7656 30.267 16.9986C29.5095 16.2315 28.9366 15.2917 28.5483 14.179C28.16 13.0663 27.9659 11.7926 27.9659 10.358C27.9659 8.97064 28.1624 7.73011 28.5554 6.63636C28.9531 5.54261 29.5284 4.61458 30.2812 3.85227C31.0388 3.08523 31.9574 2.50047 33.0369 2.09801C34.1212 1.69555 35.3475 1.49432 36.7159 1.49432C38.0464 1.49432 39.2112 1.71212 40.2102 2.14773C41.214 2.5786 42.0521 3.16335 42.7244 3.90199C43.4015 4.63589 43.9081 5.46212 44.2443 6.38068C44.5852 7.29924 44.7557 8.24621 44.7557 9.22159C44.7557 9.90814 44.7225 10.6042 44.6562 11.3097C44.59 12.0152 44.4503 12.6638 44.2372 13.2557C44.0241 13.8428 43.6951 14.3163 43.25 14.6761C42.8097 15.036 42.2131 15.2159 41.4602 15.2159C41.1288 15.2159 40.7642 15.1638 40.3665 15.0597C39.9688 14.9555 39.616 14.7827 39.3082 14.5412C39.0005 14.2997 38.8182 13.9754 38.7614 13.5682H38.6761C38.5625 13.8428 38.3873 14.1032 38.1506 14.3494C37.9186 14.5956 37.6132 14.7921 37.2344 14.9389C36.8603 15.0857 36.4034 15.1496 35.8636 15.1307C35.2481 15.107 34.706 14.9697 34.2372 14.7188C33.7685 14.4631 33.3755 14.1174 33.0582 13.6818C32.7457 13.2415 32.509 12.7325 32.348 12.1548C32.1918 11.5724 32.1136 10.9451 32.1136 10.2727C32.1136 9.63352 32.2083 9.04877 32.3977 8.51847C32.5871 7.98816 32.8499 7.52415 33.1861 7.12642C33.527 6.72869 33.9247 6.41146 34.3793 6.17472C34.8385 5.93324 35.3333 5.78409 35.8636 5.72727C36.3371 5.67992 36.768 5.70123 37.1562 5.79119C37.5445 5.87642 37.8641 6.00663 38.1151 6.18182C38.366 6.35227 38.5246 6.54167 38.5909 6.75H38.6761V5.95455H40.1818V12.375C40.1818 12.7727 40.2931 13.1231 40.5156 13.4261C40.7382 13.7292 41.0625 13.8807 41.4886 13.8807C41.9716 13.8807 42.3409 13.715 42.5966 13.3835C42.857 13.0521 43.0346 12.5407 43.1293 11.8494C43.2287 11.1581 43.2784 10.2727 43.2784 9.19318C43.2784 8.55871 43.1908 7.93371 43.0156 7.31818C42.8452 6.69792 42.5848 6.1179 42.2344 5.57812C41.8887 5.03835 41.4508 4.5625 40.9205 4.15057C40.3902 3.73864 39.7675 3.41667 39.0526 3.18466C38.3423 2.94792 37.535 2.82955 36.6307 2.82955C35.518 2.82955 34.5213 3.00237 33.6406 3.34801C32.7647 3.68892 32.0189 4.18845 31.4034 4.84659C30.7926 5.5 30.3262 6.29545 30.0043 7.23295C29.687 8.16572 29.5284 9.22633 29.5284 10.4148C29.5284 11.6222 29.687 12.6946 30.0043 13.6321C30.3262 14.5696 30.7997 15.3603 31.4247 16.0043C32.0545 16.6482 32.8333 17.1359 33.7614 17.4673C34.6894 17.8035 35.7595 17.9716 36.9716 17.9716C37.4924 17.9716 38.0062 17.9219 38.5128 17.8224C39.0194 17.723 39.4669 17.6141 39.8551 17.4957C40.2434 17.3774 40.5227 17.2898 40.6932 17.233L41.0909 18.5398C40.7973 18.6629 40.4138 18.786 39.9403 18.9091C39.4716 19.0322 38.9697 19.134 38.4347 19.2145C37.9044 19.295 37.3977 19.3352 36.9148 19.3352ZM36.0909 13.6818C36.7254 13.6818 37.2391 13.554 37.6321 13.2983C38.0251 13.0426 38.3116 12.6567 38.4915 12.1406C38.6714 11.6245 38.7614 10.9735 38.7614 10.1875C38.7614 9.39205 38.6619 8.77178 38.4631 8.3267C38.2642 7.88163 37.9706 7.56913 37.5824 7.3892C37.1941 7.20928 36.7159 7.11932 36.1477 7.11932C35.608 7.11932 35.1463 7.26136 34.7628 7.54545C34.384 7.82481 34.0928 8.19886 33.8892 8.66761C33.6903 9.13163 33.5909 9.63826 33.5909 10.1875C33.5909 10.7936 33.6714 11.3641 33.8324 11.8991C33.9934 12.4295 34.2562 12.8603 34.6207 13.1918C34.9853 13.5185 35.4754 13.6818 36.0909 13.6818ZM50.4748 15.7557C49.7835 15.7557 49.1561 15.6255 48.5927 15.3651C48.0292 15.0999 47.5818 14.7188 47.2504 14.2216C46.9189 13.7197 46.7532 13.1136 46.7532 12.4034C46.7532 11.7784 46.8763 11.2718 47.1225 10.8835C47.3687 10.4905 47.6978 10.1828 48.1097 9.96023C48.5217 9.73769 48.9762 9.57197 49.4734 9.46307C49.9753 9.34943 50.4795 9.25947 50.9862 9.19318C51.649 9.10795 52.1864 9.04403 52.5984 9.00142C53.015 8.95407 53.3181 8.87595 53.5075 8.76705C53.7016 8.65814 53.7987 8.46875 53.7987 8.19886V8.14205C53.7987 7.44129 53.6069 6.89678 53.2234 6.50852C52.8446 6.12027 52.2693 5.92614 51.4975 5.92614C50.6973 5.92614 50.07 6.10133 49.6154 6.4517C49.1609 6.80208 48.8413 7.17614 48.6566 7.57386L47.0657 7.00568C47.3498 6.3428 47.7286 5.8267 48.2021 5.45739C48.6803 5.08333 49.2011 4.82292 49.7646 4.67614C50.3327 4.52462 50.8915 4.44886 51.4407 4.44886C51.7911 4.44886 52.1935 4.49148 52.6481 4.5767C53.1074 4.6572 53.5501 4.82528 53.9762 5.08097C54.4071 5.33665 54.7646 5.72254 55.0487 6.23864C55.3327 6.75473 55.4748 7.44602 55.4748 8.3125V15.5H53.7987V14.0227H53.7134C53.5998 14.2595 53.4104 14.5128 53.1452 14.7827C52.8801 15.0526 52.5273 15.2822 52.087 15.4716C51.6467 15.661 51.1093 15.7557 50.4748 15.7557ZM50.7305 14.25C51.3933 14.25 51.9521 14.1198 52.4066 13.8594C52.8659 13.599 53.2115 13.2628 53.4435 12.8509C53.6803 12.4389 53.7987 12.0057 53.7987 11.5511V10.017C53.7276 10.1023 53.5714 10.1804 53.3299 10.2514C53.0932 10.3177 52.8185 10.3769 52.506 10.429C52.1983 10.4763 51.8976 10.5189 51.604 10.5568C51.3152 10.59 51.0808 10.6184 50.9009 10.642C50.4653 10.6989 50.0581 10.7912 49.6793 10.919C49.3053 11.0421 49.0022 11.2292 48.7702 11.4801C48.543 11.7263 48.4293 12.0625 48.4293 12.4886C48.4293 13.071 48.6448 13.5114 49.0756 13.8097C49.5112 14.1032 50.0629 14.25 50.7305 14.25ZM60.2102 8.9375V15.5H58.5341V4.59091H60.1534V6.29545H60.2955C60.5511 5.74148 60.9394 5.2964 61.4602 4.96023C61.9811 4.61932 62.6534 4.44886 63.4773 4.44886C64.2159 4.44886 64.8622 4.60038 65.4162 4.90341C65.9702 5.2017 66.401 5.65625 66.7088 6.26705C67.0166 6.87311 67.1705 7.64015 67.1705 8.56818V15.5H65.4943V8.68182C65.4943 7.82481 65.2718 7.1572 64.8267 6.67898C64.3816 6.19602 63.7708 5.95455 62.9943 5.95455C62.4593 5.95455 61.9811 6.07055 61.5597 6.30256C61.143 6.53456 60.8139 6.87311 60.5724 7.31818C60.331 7.76326 60.2102 8.30303 60.2102 8.9375ZM71.9094 8.9375V15.5H70.2333V4.59091H71.8526V6.29545H71.9947C72.2504 5.74148 72.6386 5.2964 73.1594 4.96023C73.6803 4.61932 74.3526 4.44886 75.1765 4.44886C75.9151 4.44886 76.5614 4.60038 77.1154 4.90341C77.6694 5.2017 78.1003 5.65625 78.408 6.26705C78.7158 6.87311 78.8697 7.64015 78.8697 8.56818V15.5H77.1935V8.68182C77.1935 7.82481 76.971 7.1572 76.5259 6.67898C76.0808 6.19602 75.4701 5.95455 74.6935 5.95455C74.1585 5.95455 73.6803 6.07055 73.2589 6.30256C72.8422 6.53456 72.5131 6.87311 72.2717 7.31818C72.0302 7.76326 71.9094 8.30303 71.9094 8.9375ZM85.1428 15.7557C84.4515 15.7557 83.8241 15.6255 83.2607 15.3651C82.6972 15.0999 82.2498 14.7188 81.9183 14.2216C81.5869 13.7197 81.4212 13.1136 81.4212 12.4034C81.4212 11.7784 81.5443 11.2718 81.7905 10.8835C82.0367 10.4905 82.3658 10.1828 82.7777 9.96023C83.1896 9.73769 83.6442 9.57197 84.1413 9.46307C84.6432 9.34943 85.1475 9.25947 85.6541 9.19318C86.317 9.10795 86.8544 9.04403 87.2663 9.00142C87.683 8.95407 87.986 8.87595 88.1754 8.76705C88.3696 8.65814 88.4666 8.46875 88.4666 8.19886V8.14205C88.4666 7.44129 88.2749 6.89678 87.8913 6.50852C87.5125 6.12027 86.9373 5.92614 86.1655 5.92614C85.3653 5.92614 84.7379 6.10133 84.2834 6.4517C83.8288 6.80208 83.5092 7.17614 83.3246 7.57386L81.7337 7.00568C82.0178 6.3428 82.3965 5.8267 82.87 5.45739C83.3482 5.08333 83.8691 4.82292 84.4325 4.67614C85.0007 4.52462 85.5594 4.44886 86.1087 4.44886C86.459 4.44886 86.8615 4.49148 87.3161 4.5767C87.7753 4.6572 88.218 4.82528 88.6442 5.08097C89.075 5.33665 89.4325 5.72254 89.7166 6.23864C90.0007 6.75473 90.1428 7.44602 90.1428 8.3125V15.5H88.4666V14.0227H88.3814C88.2678 14.2595 88.0784 14.5128 87.8132 14.7827C87.5481 15.0526 87.1953 15.2822 86.755 15.4716C86.3146 15.661 85.7772 15.7557 85.1428 15.7557ZM85.3984 14.25C86.0613 14.25 86.62 14.1198 87.0746 13.8594C87.5339 13.599 87.8795 13.2628 88.1115 12.8509C88.3482 12.4389 88.4666 12.0057 88.4666 11.5511V10.017C88.3956 10.1023 88.2393 10.1804 87.9979 10.2514C87.7611 10.3177 87.4865 10.3769 87.174 10.429C86.8662 10.4763 86.5656 10.5189 86.272 10.5568C85.9832 10.59 85.7488 10.6184 85.5689 10.642C85.1333 10.6989 84.7261 10.7912 84.3473 10.919C83.9732 11.0421 83.6702 11.2292 83.4382 11.4801C83.2109 11.7263 83.0973 12.0625 83.0973 12.4886C83.0973 13.071 83.3127 13.5114 83.7436 13.8097C84.1792 14.1032 84.7308 14.25 85.3984 14.25ZM94.7646 11.5227L94.7362 9.44886H95.0771L99.8498 4.59091H101.924L96.8384 9.73295H96.6964L94.7646 11.5227ZM93.2021 15.5V0.954545H94.8782V15.5H93.2021ZM100.134 15.5L95.8725 10.1023L97.0657 8.9375L102.265 15.5H100.134ZM107.291 15.7557C106.6 15.7557 105.973 15.6255 105.409 15.3651C104.846 15.0999 104.398 14.7188 104.067 14.2216C103.735 13.7197 103.57 13.1136 103.57 12.4034C103.57 11.7784 103.693 11.2718 103.939 10.8835C104.185 10.4905 104.514 10.1828 104.926 9.96023C105.338 9.73769 105.793 9.57197 106.29 9.46307C106.792 9.34943 107.296 9.25947 107.803 9.19318C108.465 9.10795 109.003 9.04403 109.415 9.00142C109.831 8.95407 110.134 8.87595 110.324 8.76705C110.518 8.65814 110.615 8.46875 110.615 8.19886V8.14205C110.615 7.44129 110.423 6.89678 110.04 6.50852C109.661 6.12027 109.086 5.92614 108.314 5.92614C107.514 5.92614 106.886 6.10133 106.432 6.4517C105.977 6.80208 105.658 7.17614 105.473 7.57386L103.882 7.00568C104.166 6.3428 104.545 5.8267 105.018 5.45739C105.497 5.08333 106.018 4.82292 106.581 4.67614C107.149 4.52462 107.708 4.44886 108.257 4.44886C108.607 4.44886 109.01 4.49148 109.464 4.5767C109.924 4.6572 110.366 4.82528 110.793 5.08097C111.223 5.33665 111.581 5.72254 111.865 6.23864C112.149 6.75473 112.291 7.44602 112.291 8.3125V15.5H110.615V14.0227H110.53C110.416 14.2595 110.227 14.5128 109.962 14.7827C109.696 15.0526 109.344 15.2822 108.903 15.4716C108.463 15.661 107.926 15.7557 107.291 15.7557ZM107.547 14.25C108.21 14.25 108.768 14.1198 109.223 13.8594C109.682 13.599 110.028 13.2628 110.26 12.8509C110.497 12.4389 110.615 12.0057 110.615 11.5511V10.017C110.544 10.1023 110.388 10.1804 110.146 10.2514C109.91 10.3177 109.635 10.3769 109.322 10.429C109.015 10.4763 108.714 10.5189 108.42 10.5568C108.132 10.59 107.897 10.6184 107.717 10.642C107.282 10.6989 106.875 10.7912 106.496 10.919C106.122 11.0421 105.819 11.2292 105.587 11.4801C105.359 11.7263 105.246 12.0625 105.246 12.4886C105.246 13.071 105.461 13.5114 105.892 13.8097C106.328 14.1032 106.879 14.25 107.547 14.25ZM123.078 7.03409L121.572 7.46023C121.477 7.20928 121.338 6.96544 121.153 6.72869C120.973 6.48722 120.727 6.28835 120.414 6.1321C120.102 5.97585 119.702 5.89773 119.214 5.89773C118.547 5.89773 117.99 6.05161 117.545 6.35938C117.105 6.66241 116.885 7.0483 116.885 7.51705C116.885 7.93371 117.036 8.26278 117.339 8.50426C117.642 8.74574 118.116 8.94697 118.76 9.10795L120.379 9.50568C121.354 9.74242 122.081 10.1046 122.559 10.5923C123.038 11.0753 123.277 11.6979 123.277 12.4602C123.277 13.0852 123.097 13.6439 122.737 14.1364C122.382 14.6288 121.885 15.017 121.245 15.3011C120.606 15.5852 119.863 15.7273 119.015 15.7273C117.903 15.7273 116.982 15.4858 116.252 15.0028C115.523 14.5199 115.062 13.8144 114.868 12.8864L116.458 12.4886C116.61 13.0758 116.896 13.5161 117.318 13.8097C117.744 14.1032 118.3 14.25 118.987 14.25C119.768 14.25 120.388 14.0843 120.848 13.7528C121.312 13.4167 121.544 13.0142 121.544 12.5455C121.544 12.1667 121.411 11.8494 121.146 11.5938C120.881 11.3333 120.474 11.1392 119.924 11.0114L118.106 10.5852C117.107 10.3485 116.373 9.98153 115.904 9.48438C115.44 8.98248 115.208 8.35511 115.208 7.60227C115.208 6.98674 115.381 6.44223 115.727 5.96875C116.077 5.49527 116.553 5.12358 117.154 4.85369C117.761 4.58381 118.447 4.44886 119.214 4.44886C120.294 4.44886 121.141 4.68561 121.757 5.15909C122.377 5.63258 122.817 6.25758 123.078 7.03409ZM127.476 8.9375V15.5H125.8V0.954545H127.476V6.29545H127.618C127.874 5.73201 128.257 5.28456 128.768 4.95312C129.285 4.61695 129.971 4.44886 130.828 4.44886C131.571 4.44886 132.223 4.59801 132.781 4.89631C133.34 5.18987 133.773 5.64205 134.081 6.25284C134.393 6.8589 134.55 7.63068 134.55 8.56818V15.5H132.874V8.68182C132.874 7.81534 132.649 7.14536 132.199 6.67188C131.754 6.19366 131.136 5.95455 130.345 5.95455C129.796 5.95455 129.304 6.07055 128.868 6.30256C128.437 6.53456 128.096 6.87311 127.845 7.31818C127.599 7.76326 127.476 8.30303 127.476 8.9375ZM137.616 15.5V4.59091H139.292V15.5H137.616ZM138.468 2.77273C138.142 2.77273 137.86 2.66146 137.623 2.43892C137.391 2.21638 137.275 1.94886 137.275 1.63636C137.275 1.32386 137.391 1.05634 137.623 0.833806C137.86 0.611269 138.142 0.5 138.468 0.5C138.795 0.5 139.074 0.611269 139.306 0.833806C139.543 1.05634 139.662 1.32386 139.662 1.63636C139.662 1.94886 139.543 2.21638 139.306 2.43892C139.074 2.66146 138.795 2.77273 138.468 2.77273ZM147.107 4.59091V6.01136H141.453V4.59091H147.107ZM143.101 1.97727H144.777V12.375C144.777 12.8485 144.846 13.2036 144.983 13.4403C145.125 13.6723 145.305 13.8286 145.523 13.9091C145.745 13.9848 145.98 14.0227 146.226 14.0227C146.411 14.0227 146.562 14.0133 146.68 13.9943C146.799 13.9706 146.893 13.9517 146.964 13.9375L147.305 15.4432C147.192 15.4858 147.033 15.5284 146.83 15.571C146.626 15.6184 146.368 15.642 146.055 15.642C145.582 15.642 145.118 15.5402 144.663 15.3366C144.214 15.133 143.839 14.8229 143.541 14.4062C143.248 13.9896 143.101 13.464 143.101 12.8295V1.97727ZM157.16 7.03409L155.654 7.46023C155.559 7.20928 155.42 6.96544 155.235 6.72869C155.055 6.48722 154.809 6.28835 154.496 6.1321C154.184 5.97585 153.784 5.89773 153.296 5.89773C152.629 5.89773 152.072 6.05161 151.627 6.35938C151.187 6.66241 150.967 7.0483 150.967 7.51705C150.967 7.93371 151.118 8.26278 151.421 8.50426C151.724 8.74574 152.198 8.94697 152.842 9.10795L154.461 9.50568C155.436 9.74242 156.163 10.1046 156.641 10.5923C157.12 11.0753 157.359 11.6979 157.359 12.4602C157.359 13.0852 157.179 13.6439 156.819 14.1364C156.464 14.6288 155.967 15.017 155.327 15.3011C154.688 15.5852 153.945 15.7273 153.097 15.7273C151.985 15.7273 151.064 15.4858 150.335 15.0028C149.605 14.5199 149.144 13.8144 148.95 12.8864L150.54 12.4886C150.692 13.0758 150.978 13.5161 151.4 13.8097C151.826 14.1032 152.382 14.25 153.069 14.25C153.85 14.25 154.47 14.0843 154.93 13.7528C155.394 13.4167 155.626 13.0142 155.626 12.5455C155.626 12.1667 155.493 11.8494 155.228 11.5938C154.963 11.3333 154.556 11.1392 154.006 11.0114L152.188 10.5852C151.189 10.3485 150.455 9.98153 149.987 9.48438C149.522 8.98248 149.29 8.35511 149.29 7.60227C149.29 6.98674 149.463 6.44223 149.809 5.96875C150.159 5.49527 150.635 5.12358 151.237 4.85369C151.843 4.58381 152.529 4.44886 153.296 4.44886C154.376 4.44886 155.223 4.68561 155.839 5.15909C156.459 5.63258 156.899 6.25758 157.16 7.03409ZM159.882 15.5V4.59091H161.558V15.5H159.882ZM160.734 2.77273C160.407 2.77273 160.126 2.66146 159.889 2.43892C159.657 2.21638 159.541 1.94886 159.541 1.63636C159.541 1.32386 159.657 1.05634 159.889 0.833806C160.126 0.611269 160.407 0.5 160.734 0.5C161.061 0.5 161.34 0.611269 161.572 0.833806C161.809 1.05634 161.927 1.32386 161.927 1.63636C161.927 1.94886 161.809 2.21638 161.572 2.43892C161.34 2.66146 161.061 2.77273 160.734 2.77273ZM166.304 8.9375V15.5H164.628V4.59091H166.247V6.29545H166.389C166.645 5.74148 167.033 5.2964 167.554 4.96023C168.075 4.61932 168.747 4.44886 169.571 4.44886C170.31 4.44886 170.956 4.60038 171.51 4.90341C172.064 5.2017 172.495 5.65625 172.803 6.26705C173.11 6.87311 173.264 7.64015 173.264 8.56818V15.5H171.588V8.68182C171.588 7.82481 171.366 7.1572 170.92 6.67898C170.475 6.19602 169.865 5.95455 169.088 5.95455C168.553 5.95455 168.075 6.07055 167.653 6.30256C167.237 6.53456 166.908 6.87311 166.666 7.31818C166.425 7.76326 166.304 8.30303 166.304 8.9375ZM179.537 15.7557C178.846 15.7557 178.219 15.6255 177.655 15.3651C177.092 15.0999 176.644 14.7188 176.313 14.2216C175.981 13.7197 175.816 13.1136 175.816 12.4034C175.816 11.7784 175.939 11.2718 176.185 10.8835C176.431 10.4905 176.76 10.1828 177.172 9.96023C177.584 9.73769 178.039 9.57197 178.536 9.46307C179.038 9.34943 179.542 9.25947 180.049 9.19318C180.712 9.10795 181.249 9.04403 181.661 9.00142C182.078 8.95407 182.381 8.87595 182.57 8.76705C182.764 8.65814 182.861 8.46875 182.861 8.19886V8.14205C182.861 7.44129 182.669 6.89678 182.286 6.50852C181.907 6.12027 181.332 5.92614 180.56 5.92614C179.76 5.92614 179.132 6.10133 178.678 6.4517C178.223 6.80208 177.904 7.17614 177.719 7.57386L176.128 7.00568C176.412 6.3428 176.791 5.8267 177.265 5.45739C177.743 5.08333 178.264 4.82292 178.827 4.67614C179.395 4.52462 179.954 4.44886 180.503 4.44886C180.854 4.44886 181.256 4.49148 181.711 4.5767C182.17 4.6572 182.613 4.82528 183.039 5.08097C183.47 5.33665 183.827 5.72254 184.111 6.23864C184.395 6.75473 184.537 7.44602 184.537 8.3125V15.5H182.861V14.0227H182.776C182.662 14.2595 182.473 14.5128 182.208 14.7827C181.943 15.0526 181.59 15.2822 181.15 15.4716C180.709 15.661 180.172 15.7557 179.537 15.7557ZM179.793 14.25C180.456 14.25 181.015 14.1198 181.469 13.8594C181.928 13.599 182.274 13.2628 182.506 12.8509C182.743 12.4389 182.861 12.0057 182.861 11.5511V10.017C182.79 10.1023 182.634 10.1804 182.392 10.2514C182.156 10.3177 181.881 10.3769 181.569 10.429C181.261 10.4763 180.96 10.5189 180.667 10.5568C180.378 10.59 180.143 10.6184 179.963 10.642C179.528 10.6989 179.121 10.7912 178.742 10.919C178.368 11.0421 178.065 11.2292 177.833 11.4801C177.605 11.7263 177.492 12.0625 177.492 12.4886C177.492 13.071 177.707 13.5114 178.138 13.8097C178.574 14.1032 179.125 14.25 179.793 14.25Z" fill="#464E59"/>
</svg>
